<?xml version="1.0" standalone="no"?>
<!DOCTYPE svg PUBLIC "-//W3C//DTD SVG 1.1//EN" "http://www.w3.org/Graphics/SVG/1.1/DTD/svg11.dtd" >
<svg xmlns="http://www.w3.org/2000/svg">
<metadata></metadata>
<defs>
<font id="narkistammfwmedium" horiz-adv-x="0" >
<font-face units-per-em="1000" ascent="800" descent="-200" />
<missing-glyph horiz-adv-x="261" />
<glyph horiz-adv-x="1000" />
<glyph horiz-adv-x="1000" />
<glyph unicode="&#xd;" horiz-adv-x="250" />
<glyph unicode=" "  horiz-adv-x="261" />
<glyph unicode="&#x09;" horiz-adv-x="261" />
<glyph unicode="&#xa0;" horiz-adv-x="261" />
<glyph unicode="!" horiz-adv-x="301" d="M193 165h-77l-18 447h113zM98 0v110h113v-110h-113z" />
<glyph unicode="&#x22;" horiz-adv-x="425" d="M260 363h-58l66 202h97zM118 363h-58l66 202h97z" />
<glyph unicode="#" horiz-adv-x="441" d="M405 313h-81l-34 -72h83l-16 -37h-84l-33 -75h-39l32 75h-78l-34 -75h-40l34 75h-82l16 37h82l33 72h-83l17 37h83l33 75h40l-34 -75h80l34 75h39l-33 -75h82zM203 313l-32 -72h79l33 72h-80z" />
<glyph unicode="$" horiz-adv-x="536" d="M473 148q-4 -55 -27 -85.5t-51.5 -44.5t-54 -16.5t-34.5 -1.5v-65h-38v65h-16t-28 3.5t-34.5 10.5t-36.5 20t-27.5 31t-14.5 35.5t-6 30.5t-1 17h77q1 0 0 -6.5t1 -17t9 -23.5t25 -25q12 -8 27.5 -11t24.5 -2v174l-12.5 2.5t-31 8.5t-40 17.5t-38.5 28.5t-27 41.5 t-6 57.5q5 46 30 72.5t52.5 39.5t50 16.5l22.5 3.5v49h38v-49q21 -1 41 -5q17 -4 37 -11t36 -21q20 -18 30 -35t13 -30q4 -16 1 -29h-75q0 6 -4.5 20.5t-15.5 24.5q-12 11 -23 15.5t-20 6.5q-11 2 -20 0v-160q48 -12 86 -32q16 -9 31.5 -20.5t27 -26.5t17.5 -33.5t5 -40.5z M268 461q-6 0 -18 -1.5t-25 -8.5t-23 -20t-11 -37q-2 -25 10 -40.5t27 -23.5q18 -11 40 -15v146zM395 141q1 26 -12.5 42.5t-30.5 26t-31.5 13l-14.5 3.5v-163h14.5t29.5 6.5t29.5 22.5t15.5 49z" />
<glyph unicode="%" horiz-adv-x="723" d="M655 128q0 -63 -28.5 -102t-86.5 -39q-53 0 -83.5 39t-30.5 102q0 70 32.5 106t82.5 36q53 0 83.5 -36t30.5 -106zM271 0h-48l228 525h48zM307 397q0 -70 -33 -106t-83 -36q-53 0 -83.5 36t-30.5 106q0 63 28.5 102t86.5 39q54 0 84.5 -39t30.5 -102zM606 128 q0 49 -14.5 76.5t-50.5 27.5t-51 -27.5t-15 -76.5q0 -20 3.5 -38.5t11 -33t20.5 -23t31 -8.5q19 0 31.5 8.5t20 23t10.5 33t3 38.5zM257 397q0 20 -3.5 38.5t-11 33t-20 23.5t-31.5 9t-31.5 -9t-20 -23.5t-10.5 -33t-3 -38.5q0 -49 14.5 -76.5t50.5 -27.5t51 27.5t15 76.5z " />
<glyph unicode="&#x26;" horiz-adv-x="680" d="M675 90q0 -29 -50 -71q-38 -32 -85 -32q-76 0 -153 83q-101 -83 -200 -83q-69 0 -109 37t-40 106q0 70 58 127q15 15 47 39q15 11 33 22t38 22q-32 98 -32 128q0 58 39 99q38 41 99 41q52 0 87 -29q36 -29 36 -79q0 -57 -45 -97q-29 -26 -96 -57q25 -51 54.5 -96 t64.5 -90q83 104 83 164q0 24 -18 33q-14 5 -40 8v18h195v-18q-32 -5 -45 -12q-24 -14 -40 -42l-22 -37q-5 -10 -11.5 -20t-13.5 -21t-15 -22.5t-16 -23.5l-35 -52q16 -32 57 -57q41 -26 76 -26q30 0 50 12q4 3 7.5 6t7.5 7l21 24zM394 504q0 32 -19 54t-51 22 q-70 0 -70 -78q0 -52 36 -128q104 59 104 130zM364 94q-16 19 -32 41.5t-33 48.5q-35 54 -72 126l-22 -16l-20 -15q-13 -11 -31 -30q-33 -38 -33 -87q0 -52 33 -88q35 -38 84 -38q59 0 126 58z" />
<glyph unicode="'" horiz-adv-x="283" d="M124 363h-58l66 202h97z" />
<glyph unicode="(" horiz-adv-x="384" d="M197 -100q-9 12 -29.5 48.5t-41.5 87t-37 108.5t-14 113q2 70 19 134.5t36.5 113t35.5 78t17 31.5h80q-1 -2 -15 -28.5t-30.5 -73.5t-31 -112t-16.5 -143q-1 -54 13 -113t32 -110.5t35.5 -88t22.5 -45.5h-76z" />
<glyph unicode=")" horiz-adv-x="384" d="M288 257q1 -55 -14.5 -113t-36.5 -108.5t-41.5 -87t-29.5 -48.5h-76q5 9 22.5 45.5t35.5 88t32 110.5t13 113q-2 78 -16.5 143t-31 112t-30.5 73.5t-15 28.5h80q1 -2 17 -31.5t35.5 -78t36.5 -113t19 -134.5z" />
<glyph unicode="*" horiz-adv-x="420" d="M263 465l62 -77l-39 -33l-65 81l-65 -81l-39 33l61 77l-101 37l18 48l100 -37v107h51v-107l99 38l18 -48z" />
<glyph unicode="+" horiz-adv-x="638" d="M355 229v-193h-73v193h-192v73h192v192h73v-192h193v-73h-193z" />
<glyph unicode="," horiz-adv-x="261" d="M108 -110h-82l80 219h116z" />
<glyph unicode="-" horiz-adv-x="598" d="M90 309h418v-87h-418v87z" />
<glyph unicode="." horiz-adv-x="182" d="M40 0v110h113v-110h-113z" />
<glyph unicode="/" horiz-adv-x="376" d="M98 0h-48l268 568h48z" />
<glyph unicode="0" horiz-adv-x="539" d="M497 257q0 -69 -17.5 -121t-48 -87.5t-72 -53t-90.5 -17.5q-105 0 -166.5 70.5t-61.5 208.5q0 63 14.5 114.5t43 88t71.5 57t100 20.5q52 0 94.5 -20.5t71.5 -57t45 -88t16 -114.5zM399 257q0 40 -6.5 77t-22 65.5t-40.5 46t-61 17.5q-38 0 -63 -17.5t-40 -46t-21 -65.5 t-6 -77q0 -48 6.5 -86t22 -64.5t40 -40.5t60.5 -14q71 0 101 55t30 150z" />
<glyph unicode="1" horiz-adv-x="539" d="M259 0v408q-9 -9 -18 -16q-8 -7 -16.5 -13t-15.5 -10q-19 -11 -31 -16.5t-29 -10.5v92q8 2 30.5 11.5t48.5 29.5q7 5 15 13t15 15.5t11.5 13.5t5.5 8h89v-525h-105z" />
<glyph unicode="2" horiz-adv-x="539" d="M70 0v89l139 99q18 13 44 31.5t50.5 41.5t42 49.5t19.5 53.5q1 18 -5 35t-17.5 31t-29 22.5t-39.5 8.5q-20 0 -37 -7t-29.5 -20t-19.5 -31t-6 -39h-102q1 5 2 19t7 33.5t17.5 40.5t32.5 38.5t53 29t78 11.5q37 0 73 -11.5t64.5 -33.5t45 -54t15.5 -73q-1 -33 -20.5 -65.5 t-47.5 -61.5t-60 -53.5t-57 -40.5l-94 -61h279v-82h-398z" />
<glyph unicode="3" horiz-adv-x="539" d="M491 156q3 -43 -15 -77t-50 -57t-75.5 -34t-91.5 -9q-37 1 -64.5 9.5t-47.5 21.5t-33 28.5t-21 31.5q-19 38 -19 86h102q2 -43 24.5 -70t67.5 -29q64 -2 92.5 27.5t24.5 69.5q-2 22 -15 36.5t-30.5 23t-37.5 12t-37.5 5t-28.5 1.5t-11 1v73q0 1 22 1.5t49 7.5t49.5 22 t24.5 45q2 35 -22.5 56.5t-66.5 21.5q-13 0 -27 -3.5t-26 -12.5t-21 -23.5t-12 -35.5h-103q1 18 6 38.5t19 39.5q18 25 41.5 39.5t47 22t45 9.5t36.5 2q37 0 71 -8.5t60.5 -27t41.5 -47t14 -68.5q-1 -36 -21.5 -58t-44.5 -34t-43.5 -16l-19.5 -4l10.5 -1.5t26.5 -6t34.5 -12 t34.5 -20.5t27 -32t13 -45z" />
<glyph unicode="4" horiz-adv-x="539" d="M421 125v-125h-105v125h-268v91l244 309h129v-318h76v-82h-76zM316 432l-178 -225h178v225z" />
<glyph unicode="5" horiz-adv-x="539" d="M478 174q2 -41 -13.5 -77t-44.5 -62t-69.5 -41t-88.5 -14q-47 1 -79.5 12t-53.5 26.5t-32.5 34.5t-17.5 36t-7.5 30t-2.5 17h102q10 -42 35 -60t56 -19q32 -1 54 8t35 25t19 36t6 41q0 29 -9 49.5t-24 33t-33 18t-35 5.5q-33 0 -58 -18t-36 -44h-100l17 314h354v-82h-259 l-9 -137q28 22 55 30t63 10q36 1 67.5 -10.5t55 -34t37.5 -55t16 -72.5z" />
<glyph unicode="6" horiz-adv-x="539" d="M493 158q1 -37 -14.5 -69.5t-42.5 -57t-64 -38.5t-80 -14q-82 0 -140.5 47t-75.5 132t-7.5 155.5t41 121t82.5 78t116 27.5q33 0 58.5 -7t44 -18.5t31.5 -26.5t21 -30q19 -36 21 -82h-98q-1 0 -1 12t-6 27.5t-22.5 29.5t-50.5 18q-22 2 -40.5 -4t-33.5 -18t-26.5 -28 t-18.5 -33q-7 -16 -10 -36t-5 -37q-2 -21 -3 -42q16 16 35 29q17 11 38.5 21t47.5 12q40 2 76.5 -6t64.5 -28.5t44.5 -53.5t17.5 -81zM294 253q-34 0 -57 -14.5t-34 -36.5t-11 -48t11 -48t33.5 -37t55.5 -15t55.5 14.5t33.5 36.5t11.5 48t-10.5 48t-33 37t-55 15z" />
<glyph unicode="7" horiz-adv-x="539" d="M282 0h-123l227 443h-297v82h387v-88z" />
<glyph unicode="8" horiz-adv-x="539" d="M477 156q3 -80 -51.5 -126.5t-166.5 -46.5q-48 0 -86 13t-63.5 36t-38 55t-9.5 71t23 62.5t43 36t42 17l19 4.5l-17 3t-38 14.5t-40 33t-22 57.5q-3 37 12 66t42.5 48t65 29t78.5 10q37 0 72.5 -8.5t63 -26.5t43.5 -46.5t15 -68.5q-2 -41 -22 -63t-43.5 -33t-42 -13 l-18.5 -2l21.5 -3.5t47 -16t47 -36.5t23.5 -66zM267 314q46 0 69.5 24t23.5 53.5t-23.5 53.5t-69.5 24q-47 0 -70 -24t-23 -53.5t23 -53.5t70 -24zM267 60q36 0 60 13.5t36 33.5t12 44t-12 44t-36 33.5t-60 13.5q-34 0 -57.5 -13.5t-34.5 -33.5t-11.5 -44t11.5 -44 t34.5 -33.5t57.5 -13.5z" />
<glyph unicode="9" horiz-adv-x="539" d="M472 362q17 -86 7.5 -156t-41 -120.5t-82.5 -78t-116 -27.5q-34 0 -59 7t-44 18.5t-31.5 26.5t-20.5 30q-19 36 -21 82h98q1 0 1 -12t6 -27.5t22.5 -29.5t50.5 -18q22 -2 40.5 4t33.5 18t26.5 28t18.5 33q6 16 9.5 35.5t5.5 37.5q2 20 3 42q-16 -17 -35 -30 q-17 -11 -39 -20.5t-47 -11.5q-40 -2 -76.5 6t-64.5 28.5t-44.5 53.5t-17.5 81q-1 37 14.5 69.5t42.5 57t64 38.5t80 14q82 0 140.5 -47t75.5 -132zM256 466q-33 0 -55.5 -14.5t-33.5 -36.5t-11.5 -48t10.5 -48t33 -37t55 -15q34 0 57 14.5t34 36.5t11 48t-11 48t-33.5 37 t-55.5 15z" />
<glyph unicode=":" horiz-adv-x="275" d="M85 333v110h113v-110h-113zM85 0v110h113v-110h-113z" />
<glyph unicode=";" horiz-adv-x="358" d="M137 333v110h113v-110h-113zM154 -110h-82l80 219h116z" />
<glyph unicode="&#x3c;" horiz-adv-x="438" d="M80 231l239 235v-51l-185 -184l185 -184v-51z" />
<glyph unicode="=" horiz-adv-x="651" d="M96 312v73h458v-73h-458zM96 159v73h458v-73h-458z" />
<glyph unicode="&#x3e;" horiz-adv-x="438" d="M114 -4v51l185 184l-185 184v51l239 -235z" />
<glyph unicode="?" horiz-adv-x="477" d="M415 479q1 -28 -11 -52t-30.5 -45t-41 -40.5t-41.5 -38t-31.5 -37.5t-12.5 -39v-62h-99v61q0 22 12.5 41.5t31.5 38t41 37t40.5 38.5t30.5 42.5t11 49.5q-1 31 -26 54t-87 22q-33 -1 -65 -5.5t-45 -10.5v83q6 2 17.5 4.5t26 4.5t31 3.5t32.5 1.5q42 0 80.5 -7.5t68 -24.5 t47.5 -46.5t20 -72.5zM141 0v110h113v-110h-113z" />
<glyph unicode="@" horiz-adv-x="968" d="M928 94q-67 -151 -163 -224q-106 -82 -268 -82q-199 0 -320 130q-116 125 -116 319q0 197 135 328q137 131 341 131q150 0 246 -99q96 -98 96 -256q0 -139 -77 -249q-77 -108 -175 -108q-97 0 -101 76q-1 22 8 69q-32 -37 -53.5 -60.5t-33.5 -34.5q-59 -50 -103 -50 q-45 0 -70 37q-22 31 -22 82q0 110 86 235q92 131 195 131q30 0 50 -25.5t25 -59.5l20 65l82 10l-94 -317q-13 -40 -13 -74q0 -50 36 -50q76 0 141 101q65 104 65 226q0 136 -92 231q-90 92 -214 92q-191 0 -314 -130q-120 -126 -120 -311q0 -167 109 -285 q114 -124 289 -124q281 0 395 276h30zM585 369q0 28 -22 50q-23 24 -43 24q-76 0 -142 -122q-58 -109 -58 -203q0 -70 55 -70q71 0 143 117q67 109 67 204z" />
<glyph unicode="A" horiz-adv-x="750" d="M742 0h-280v18q74 0 74 43q0 19 -12 46l-51 120h-265l-52 -120q-12 -27 -12 -45q0 -44 79 -44v-18h-217v18q59 0 97 89l253 589h24l249 -589q21 -50 42 -68q24 -21 71 -21v-18zM454 265l-113 274l-118 -274h231z" />
<glyph unicode="B" horiz-adv-x="672" d="M621 184q0 -80 -60 -132q-59 -52 -156 -52h-385v18q54 0 75 18.5t21 71.5v464q0 53 -21 71.5t-75 18.5v18h345q100 0 161 -46q63 -47 63 -121q0 -57 -24 -91t-89 -69v-2q67 -11 106 -55.5t39 -111.5zM483 503q0 64 -42 102q-47 41 -136 41q-21 0 -42 -3t-43 -8v-258 q25 -7 131 -7q61 0 96.5 38t35.5 95zM509 180q0 69 -41 110q-46 46 -141 46q-26 0 -52.5 -1.5t-54.5 -5.5v-279q46 -11 113 -11q86 0 133 42q43 37 43 99z" />
<glyph unicode="C" horiz-adv-x="685" d="M652 159q-42 -75 -107 -122q-76 -53 -159 -53q-152 0 -253 101t-101 247q0 151 106 257q107 107 251 107q53 0 92 -12q25 -8 51 -22q22 -12 32 -12q11 0 22 13.5t15 32.5h17l17 -231h-24q-10 82 -70 139q-59 58 -135 58q-113 0 -184 -95q-68 -91 -68 -239q0 -140 78 -224 q73 -81 189 -81q119 0 214 146z" />
<glyph unicode="D" horiz-adv-x="737" d="M705 346q0 -149 -93 -245q-98 -101 -265 -101h-327v18q54 0 75 18.5t21 71.5v464q0 53 -21 71.5t-75 18.5v18h302q190 0 278 -82q105 -98 105 -252zM583 344q0 127 -72 214q-72 88 -181 88q-48 0 -110 -17v-579q41 -16 110 -16q108 0 179 83q74 88 74 227z" />
<glyph unicode="E" horiz-adv-x="625" d="M607 191l-61 -191h-526v18q54 0 75 18.5t21 71.5v464q0 53 -21 71.5t-75 18.5v18h522l8 -162h-18q-14 66 -43 95q-33 33 -97 33h-172v-258h147q102 0 102 88h18v-230h-18q0 108 -100 108h-149v-278q0 -17 12 -29.5t28 -12.5h142q132 0 181 157h24z" />
<glyph unicode="F" horiz-adv-x="552" d="M532 518h-18q-14 66 -43 95q-33 33 -97 33h-154v-258h103q102 0 102 88h18v-230h-18q0 108 -100 108h-105v-246q0 -53 21 -71.5t75 -18.5v-18h-296v18q54 0 75 18.5t21 71.5v464q0 53 -21 71.5t-75 18.5v18h504z" />
<glyph unicode="G" horiz-adv-x="758" d="M726 345q-39 0 -54 -18.5t-15 -66.5v-210q-111 -66 -271 -66q-152 0 -253 101t-101 247q0 151 106 257q107 107 251 107q70 0 127 -23t60 -23q11 0 22 13.5t15 32.5h17l17 -231h-24q-50 197 -217 197q-113 0 -184 -95q-68 -91 -68 -239q0 -140 78 -224q73 -81 189 -81 q79 0 132 47v190q0 24 -4.5 40.5t-15 26.5t-29 14t-46.5 4v18h268v-18z" />
<glyph unicode="H" horiz-adv-x="751" d="M731 0h-296v18q54 0 75 18.5t21 71.5v228h-311v-228q0 -53 21 -71.5t75 -18.5v-18h-296v18q54 0 75 18.5t21 71.5v464q0 53 -21 71.5t-75 18.5v18h296v-18q-54 0 -75 -18.5t-21 -71.5v-202h311v202q0 53 -21 71.5t-75 18.5v18h296v-18q-54 0 -75 -18.5t-21 -71.5v-464 q0 -53 21 -71.5t75 -18.5v-18z" />
<glyph unicode="I" horiz-adv-x="342" d="M319 0h-296v18q54 0 75 18.5t21 71.5v464q0 53 -21 71.5t-75 18.5v18h296v-18q-54 0 -75 -18.5t-21 -71.5v-464q0 -53 21 -71.5t75 -18.5v-18z" />
<glyph unicode="J" horiz-adv-x="397" d="M387 662q-54 0 -75 -18.5t-21 -71.5v-354q0 -115 -51 -174.5t-139 -59.5q-41 0 -67 19q-30 22 -30 59q0 21 17.5 35.5t37.5 14.5q30 0 44 -24l19 -47q11 -23 31 -23q34 0 34 65v489q0 53 -21 71.5t-75 18.5v18h296v-18z" />
<glyph unicode="K" horiz-adv-x="752" d="M761 0h-317v18q48 0 48 36q0 18 -38 56l-234 235v-237q0 -53 21 -71.5t75 -18.5v-18h-296v18q54 0 75 18.5t21 71.5v464q0 53 -21 71.5t-75 18.5v18h296v-18q-54 0 -75 -18.5t-21 -71.5v-193l217 196q46 42 46 63q0 24 -63 24v18h251v-19q-23 0 -42.5 -3.5t-39 -13 t-39.5 -24.5t-44 -37l-202 -189l276 -275q35 -35 59.5 -56t38.5 -29q29 -16 83 -16v-18z" />
<glyph unicode="L" horiz-adv-x="628" d="M610 185l-59 -185h-531v18q54 0 75 18.5t21 71.5v464q0 53 -21 71.5t-75 18.5v18h296v-18q-54 0 -75 -18.5t-21 -71.5v-487q0 -21 11.5 -36t27.5 -15h127q154 0 204 156z" />
<glyph unicode="M" horiz-adv-x="926" d="M904 0h-296v18q54 0 75 18.5t21 71.5v449h-4l-253 -557h-21l-257 553h-7v-445q0 -53 21 -71.5t75 -18.5v-18h-238v18q54 0 75 18.5t21 71.5v464q0 53 -21 71.5t-75 18.5v18h202l241 -522h5l236 522h200v-18q-54 0 -75 -18.5t-21 -71.5v-464q0 -53 21 -71.5t75 -18.5v-18z " />
<glyph unicode="N" horiz-adv-x="739" d="M722 662q-54 0 -75 -18.5t-21 -71.5v-588h-24l-439 553h-4v-429q0 -53 21 -71.5t75 -18.5v-18h-238v18q54 0 75 18.5t21 71.5v458q0 21 -9 38.5t-24 30.5t-35.5 20t-44.5 7v18h171l405 -497h4v389q0 53 -21 71.5t-75 18.5v18h238v-18z" />
<glyph unicode="O" horiz-adv-x="746" d="M714 344q0 -149 -99 -255q-99 -105 -242 -105t-242 105q-99 106 -99 255q0 147 99 249q99 103 242 103t242 -103q99 -102 99 -249zM592 344q0 143 -57 229q-59 89 -162 89q-104 0 -163 -89q-56 -86 -56 -229q0 -145 56 -233q58 -93 163 -93q103 0 162 93q57 88 57 233z " />
<glyph unicode="P" horiz-adv-x="576" d="M544 486q0 -89 -64 -138q-56 -45 -139 -45q-75 0 -121 12v-207q0 -53 21 -71.5t75 -18.5v-18h-296v18q54 0 75 18.5t21 71.5v464q0 53 -21 71.5t-75 18.5v18h292q99 0 164 -50q68 -54 68 -144zM432 479q0 70 -40 116q-41 47 -98 47q-44 0 -74 -10v-279q49 -15 79 -15 q64 0 100 41q33 37 33 100z" />
<glyph unicode="Q" horiz-adv-x="738" d="M706 344q0 -121 -72 -221q-73 -103 -184 -129q23 -74 92 -128q74 -61 160 -61v-18q-126 0 -258 72q-57 31 -100 66t-72 73q-103 28 -172 130q-68 103 -68 216q0 148 97 249q97 103 240 103t240 -103q97 -101 97 -249zM588 344q0 143 -57 229q-59 89 -162 89 q-104 0 -163 -89q-56 -86 -56 -229q0 -145 56 -233q58 -93 163 -93q106 13 162.5 98t56.5 228z" />
<glyph unicode="R" horiz-adv-x="691" d="M702 0h-194l-215 320h-73v-212q0 -53 21 -71.5t75 -18.5v-18h-296v18q54 0 75 18.5t21 71.5v464q0 53 -21 71.5t-75 18.5v18h310q107 0 168 -50q56 -47 56 -127q0 -63 -41 -109t-110 -64l145 -213q67 -99 154 -99v-18zM442 499q0 63 -37 104q-37 43 -93 43q-59 0 -92 -13 v-279h60q36 0 65.5 10.5t51 29t33.5 45.5t12 60z" />
<glyph unicode="S" horiz-adv-x="560" d="M510 179q0 -82 -59 -138q-63 -57 -168 -57q-52 0 -106 20q-47 18 -62 18q-26 0 -32 -38h-18v230h18q8 -90 70 -142q59 -50 138 -50q53 0 90 31q39 31 39 81q0 68 -94 126l-174 100q-94 66 -94 153q0 78 56 131q56 52 146 52q34 0 85 -16q3 -1 11.5 -4.5t22.5 -9.5 q21 -8 31 -8q14 0 25.5 12.5t11.5 25.5h18v-237h-19q-9 94 -57 146.5t-129 52.5q-53 0 -89 -36q-33 -32 -33 -73q0 -59 96 -117l180 -104q96 -68 96 -149z" />
<glyph unicode="T" horiz-adv-x="590" d="M578 518h-18q-14 66 -43 95q-33 33 -97 33h-74v-538q0 -53 21 -71.5t75 -18.5v-18h-296v18q54 0 75 18.5t21 71.5v538h-74q-64 0 -95.5 -31t-44.5 -97h-18l8 162h552z" />
<glyph unicode="U" horiz-adv-x="752" d="M743 662q-54 0 -75 -18.5t-21 -71.5v-333q0 -113 -63 -180q-72 -75 -208 -75q-124 0 -196 76q-67 70 -67 181v331q0 53 -21 71.5t-75 18.5v18h296v-18q-54 0 -75 -18.5t-21 -71.5v-333q0 -88 53 -150q52 -61 139 -61t141 62q51 58 51 149v333q0 53 -21 71.5t-75 18.5v18 h238v-18z" />
<glyph unicode="V" horiz-adv-x="724" d="M721 662q-61 0 -107 -115l-228 -563h-26l-258 594q-20 46 -43 65t-59 19v18h278v-18q-74 0 -74 -47q0 -19 14 -53l183 -423l168 416q12 28 12 51q0 56 -70 56v18h210v-18z" />
<glyph unicode="W" horiz-adv-x="946" d="M950 662q-42 0 -61 -27q-13 -15 -34 -78l-195 -573h-24l-157 431l-153 -431h-24l-204 570q-22 61 -38 82q-20 26 -60 26v18h252v-18q-67 0 -67 -37q0 -18 17 -67l140 -395l113 318l-26 74q-21 59 -37 79q-24 28 -69 28v18h265v-18q-68 0 -68 -38q0 -25 15 -68l136 -393 l138 396q11 35 11 53q0 50 -73 50l1 18h202v-18z" />
<glyph unicode="X" horiz-adv-x="742" d="M734 0h-295v17q67 1 67 39q0 20 -20 52l-126 190l-143 -184q-27 -27 -27 -54q0 -42 62 -42v-18h-252v18q41 0 87 28q45 26 71 61l177 231l-167 241q-59 83 -144 83v18h319v-18q-72 0 -72 -38q0 -19 20 -48l107 -158l124 157q26 34 26 53q0 34 -69 34v18h239v-19 q-39 1 -68.5 -16t-62.5 -59l-166 -209l192 -269q34 -48 50 -63q31 -27 71 -27v-18z" />
<glyph unicode="Y" horiz-adv-x="694" d="M695 662q-21 0 -38 -4.5t-31.5 -14.5t-28 -26t-28.5 -40l-178 -283v-186q0 -53 21 -71.5t75 -18.5v-18h-296v18q54 0 75 18.5t21 71.5v175l-201 302q-27 40 -42 55q-23 22 -60 22v18h296v-18q-83 0 -81 -47q0 -19 18 -47l147 -236l153 246q10 16 10 35q0 49 -71 49v18 h239v-18z" />
<glyph unicode="Z" horiz-adv-x="622" d="M598 178l-32 -178h-556v17l438 624h-210q-76 0 -107 -28q-31 -27 -42 -104h-18l15 171h511l-451 -641h275q25 0 49 10.5t45 29t37.5 44t27.5 55.5h18z" />
<glyph unicode="[" horiz-adv-x="347" d="M80 -85v695h167v-53h-87v-589h91v-53h-171z" />
<glyph unicode="\" horiz-adv-x="275" d="M274 -16h-47l-228 712h47z" />
<glyph unicode="]" horiz-adv-x="348" d="M96 -85v53h91v589h-87v53h167v-695h-171z" />
<glyph unicode="^" horiz-adv-x="496" d="M484 328h-63l-174 292l-175 -292h-60l220 368h32z" />
<glyph unicode="_" horiz-adv-x="550" d="M550 -146h-550v46h550v-46z" />
<glyph unicode="`" horiz-adv-x="201" d="M190 719h-28l-151 177h126z" />
<glyph unicode="a" horiz-adv-x="445" d="M439 58q-41 -68 -107 -68q-25 0 -38 25q-12 19 -12 48q-26 -22 -40.5 -34.5t-18.5 -14.5q-38 -24 -84 -24q-49 0 -78 32t-29 83q0 78 85 127q33 19 165 66v28q0 113 -81 113q-68 0 -68 -70q0 -61 -41 -61q-19 0 -31.5 15.5t-12.5 38.5q0 44 50 76q49 31 119 31 q148 0 148 -122v-260q0 -35 23 -35q26 0 51 40v-34zM282 268q-167 -59 -167 -139q0 -33 20.5 -58t47.5 -25q37 0 99 50v172z" />
<glyph unicode="b" horiz-adv-x="506" d="M468 264q0 -112 -68 -194q-68 -80 -165 -80q-100 0 -161 55v505q0 46 -4 57q-5 18 -26 18q-11 0 -41 -8l-7 18l137 61h24v-322q19 38 62 67q43 28 82 28q72 0 119 -60q48 -59 48 -145zM381 235q0 68 -36 116t-86 48q-28 0 -57.5 -16.5t-44.5 -39.5v-268q45 -47 95 -47 q57 0 93 58t36 149z" />
<glyph unicode="c" horiz-adv-x="542" d="M467 174q-21 -88 -70.5 -136t-121.5 -48q-82 0 -140 66q-57 67 -57 162q0 103 63 177q65 74 154 74q71 0 115 -31q46 -31 46 -78q0 -21 -17 -36t-38 -15q-22 0 -35.5 15.5t-13.5 35.5q0 75 -70 75q-27 0 -49.5 -12t-38.5 -33.5t-24.5 -50.5t-8.5 -62q0 -92 40 -154 q40 -63 106 -63q93 0 141 120z" />
<glyph unicode="d" horiz-adv-x="510" d="M511 53l-140 -63h-24v55q-61 -55 -138 -55q-73 0 -125 69q-52 70 -52 165q0 94 65 170q66 75 155 75q53 0 95 -42v123q0 46 -4 57q-5 18 -26 18q-11 0 -41 -8l-7 18l137 61h24v-560q0 -45 9 -61t33 -16q17 0 33 8zM347 314q0 52 -33 88q-32 33 -71 33q-51 0 -85 -52 t-34 -133q0 -87 38 -149q39 -61 94 -61q52 0 91 47v227z" />
<glyph unicode="e" horiz-adv-x="462" d="M435 161q-18 -72 -76 -121q-59 -50 -122 -50q-85 0 -145 65q-60 66 -60 158q0 112 57 184t149 72q80 0 133 -54q53 -53 53 -131h-312q0 -95 42 -159q42 -65 106 -65q53 0 100 30q47 32 57 74zM320 308q0 52 -32 90q-31 37 -76 37q-38 0 -67 -38t-33 -89h208z" />
<glyph unicode="f" horiz-adv-x="292" d="M409 615q0 -39 -41 -39q-31 0 -53 43t-57 43q-13 0 -25.5 -7t-22 -19t-15.5 -27.5t-6 -32.5v-117h112v-34h-112v-318q0 -51 14 -70t58 -19v-18h-227v18q44 0 59 21q13 17 13 68v318h-88v34h88v69q0 69 45 119q46 49 111 49q147 0 147 -81z" />
<glyph unicode="g" horiz-adv-x="500" d="M474 -36q0 -41 -17 -73.5t-49.5 -55t-78.5 -35t-103 -12.5q-206 0 -206 94q0 34 31 69q7 8 22 23t40 37q-55 19 -55 56q0 14 6.5 29t18 28.5t27 25t33.5 18.5q-90 42 -90 136q0 68 53 116q53 49 131 49q85 0 118 -33h119v-38h-79q27 -42 27 -89q0 -71 -54 -116 q-55 -44 -140 -44q-31 0 -61 10q-29 -26 -29 -53q0 -30 53 -32l155 -7q128 -6 128 -103zM332 286q0 67 -31 113t-74 46q-81 0 -81 -124q0 -32 7 -59t20 -46.5t30.5 -31t38.5 -11.5q36 0 63 33t27 80zM436 -69q0 59 -104 59q-64 0 -112 3.5t-82 10.5q-38 -32 -38 -78 q0 -33 40 -54q43 -24 118 -24q77 0 131 26q47 26 47 57z" />
<glyph unicode="h" horiz-adv-x="520" d="M506 0h-227v18q44 0 59 21q13 17 13 68v208q0 92 -67 92q-56 0 -117 -66v-234q0 -51 14 -70t58 -19v-18h-227v18q44 0 59 21q13 17 13 68v443q0 46 -4 57q-5 18 -26 18q-11 0 -41 -8l-7 18l137 61h24v-320q75 93 162 93q44 0 74 -41q31 -40 31 -98v-223q0 -51 14 -70 t58 -19v-18z" />
<glyph unicode="i" horiz-adv-x="278" d="M192 650q0 -19 -14 -32.5t-34 -13.5t-34 13.5t-14 32.5t14 32.5t34 13.5t34 -13.5t14 -32.5zM258 0h-227v18q44 0 59 21q13 17 13 68v216q0 46 -4 57q-5 18 -26 18q-11 0 -41 -8l-7 18l137 61h24v-362q0 -51 14 -70t58 -19v-18z" />
<glyph unicode="j" horiz-adv-x="278" d="M192 650q0 -19 -14 -32.5t-34 -13.5t-34 13.5t-14 32.5t14 32.5t34 13.5t34 -13.5t14 -32.5zM186 0q0 -132 -44 -178q-33 -34 -123 -34q-37 0 -59.5 16t-22.5 39q0 39 43 39q18 0 38 -30q21 -30 42 -30q43 0 43 78v423q0 46 -4 57q-5 18 -26 18q-11 0 -41 -8l-7 18 l137 61h24v-469z" />
<glyph unicode="k" horiz-adv-x="510" d="M525 0h-227v18q30 0 30 23q0 15 -37 61l-120 150v-145q0 -51 14 -70t58 -19v-18h-227v18q44 0 59 21q13 17 13 68v443q0 46 -4 57q-5 18 -26 18q-11 0 -41 -8l-7 18l137 61h24v-435l111 101l36 34t18 29q0 16 -36 16v18h190v-18q-45 0 -76 -14q-27 -13 -83 -61l-84 -73 l136 -172q25 -31 44 -51.5t33 -31.5q29 -20 65 -20v-18z" />
<glyph unicode="l" horiz-adv-x="277" d="M253 0h-227v18q44 0 59 21q13 17 13 68v443q0 46 -4 57q-5 18 -26 18q-11 0 -41 -8l-7 18l137 61h24v-589q0 -51 14 -70t58 -19v-18z" />
<glyph unicode="m" horiz-adv-x="805" d="M797 0h-227v18q44 0 59 21q13 17 13 68v205q0 39 -22 67t-53 28q-34 0 -68.5 -19t-50.5 -46v-235q0 -51 14 -70t58 -19v-18h-227v18q44 0 59 21q13 17 13 68v205q0 19 -6 36.5t-16.5 30.5t-24 20.5t-28.5 7.5q-31 0 -65.5 -19t-53.5 -46v-235q0 -51 14 -70t58 -19v-18 h-227v18q44 0 59 21q13 17 13 68v216q0 46 -4 57q-5 18 -26 18q-11 0 -41 -8l-7 18l137 61h24v-95q35 41 77 67q46 28 83 28q40 0 74 -28q34 -29 42 -69q20 39 69 68t95 29q47 0 80 -43q34 -41 34 -101v-218q0 -51 14 -70t58 -19v-18z" />
<glyph unicode="n" horiz-adv-x="518" d="M510 0h-227v18q44 0 59 21q13 17 13 68v208q0 92 -67 92q-56 0 -117 -66v-234q0 -51 14 -70t58 -19v-18h-227v18q44 0 59 21q13 17 13 68v216q0 46 -4 57q-5 18 -26 18q-11 0 -41 -8l-7 18l137 61h24v-93q75 93 162 93q44 0 74 -41q31 -40 31 -98v-223q0 -51 14 -70 t58 -19v-18z" />
<glyph unicode="o" horiz-adv-x="506" d="M474 243q0 -107 -63 -180t-158 -73t-158 68q-63 67 -63 166q0 103 63 174t158 71t158 -66q63 -65 63 -160zM381 196q0 239 -148 239q-43 0 -76 -50q-32 -50 -32 -119q0 -103 38 -171q41 -71 106 -71q48 0 80 50q32 52 32 122z" />
<glyph unicode="p" horiz-adv-x="516" d="M484 253q0 -117 -55 -188q-56 -75 -149 -75q-65 0 -112 34v-111q0 -51 14 -70t58 -19v-18h-227v18q44 0 58 19.5t14 69.5v410q0 46 -4 57q-5 18 -26 18q-11 0 -41 -8l-7 18l137 61h24v-103q72 103 152 103q73 0 118 -63q46 -61 46 -153zM392 205q0 100 -31 152 q-29 50 -78 50q-65 0 -115 -74v-209q0 -42 31.5 -71t80.5 -29q47 0 79 50q33 51 33 131z" />
<glyph unicode="q" horiz-adv-x="512" d="M503 -194h-227v18q44 0 58 19.5t14 69.5v159q-67 -82 -149 -82q-69 0 -118 63q-49 64 -49 154q0 108 66 185q68 77 162 77q66 0 88 -34l63 34h20v-556q0 -51 14 -70t58 -19v-18zM348 348q0 33 -25 58q-29 29 -74 29q-54 0 -92 -53t-38 -127q0 -81 36 -138t87 -57 q36 0 67 19q28 16 39 37v232z" />
<glyph unicode="r" horiz-adv-x="344" d="M353 414q0 -45 -48 -45q-20 0 -38 15t-31 15q-27 0 -67 -72v-220q0 -51 14 -70t58 -19v-18h-227v18q44 0 59 21q13 17 13 68v216q0 46 -4 57q-5 18 -26 18q-11 0 -41 -8l-7 18l137 61h24v-96q58 96 119 96q27 0 46 -16t19 -39z" />
<glyph unicode="s" horiz-adv-x="402" d="M367 129q0 -61 -42 -100t-118 -39q-29 0 -68 11q-38 12 -46 12q-15 0 -21 -13h-18v159h18q7 -56 48 -96q40 -39 89 -39q32 0 54 19.5t22 46.5q0 46 -61 80q-28 16 -56 31t-57 30q-61 43 -61 110q0 57 37 92.5t98 35.5q28 0 61 -9q34 -9 43 -9q16 0 21 18h18v-153h-18 q-3 52 -37 87q-35 36 -80 36q-36 0 -58.5 -18t-22.5 -43q0 -46 66 -80q31 -15 61.5 -30t61.5 -31q66 -44 66 -108z" />
<glyph unicode="t" horiz-adv-x="290" d="M290 97q-32 -107 -128 -107q-82 0 -82 107v328h-72v24q47 0 83 48t48 120h24v-158h111v-34h-111v-328q0 -20 13 -34.5t32 -14.5q38 0 60 49h22z" />
<glyph unicode="u" horiz-adv-x="518" d="M518 53l-140 -63h-24v96q-22 -39 -64 -68q-40 -28 -78 -28q-55 0 -94 42q-38 43 -38 101v229q0 46 -15 62.5t-57 16.5v18h155v-326q0 -35 27 -59t65 -24q25 0 54 21.5t45 52.5v238q0 46 -15 62.5t-57 16.5v18h155v-323q0 -45 9 -61t33 -16q17 0 33 8z" />
<glyph unicode="v" horiz-adv-x="494" d="M485 441q-38 0 -63 -60l-163 -391h-24l-163 381q-18 42 -32.5 56t-39.5 14v18h208v-18q-53 0 -53 -29q0 -19 15 -56l100 -244l104 254q13 30 13 56q0 19 -57 19v18h155v-18z" />
<glyph unicode="w" horiz-adv-x="753" d="M753 441q-44 0 -68 -25q-19 -20 -36 -68l-132 -358h-24l-119 308l-119 -308h-24l-139 354q-13 34 -23 54t-17 28q-14 15 -52 15v18h200v-18q-39 0 -39 -25q0 -23 18 -68l90 -224l86 220l-10 26q-8 23 -29 44q-27 27 -60 27v18h232v-18q-63 0 -63 -33q0 -17 17 -60 l90 -224l75 214q20 58 20 72q0 31 -44 31v18h170v-18z" />
<glyph unicode="x" horiz-adv-x="503" d="M497 0h-225l1 18q47 0 47 29q0 11 -29 55l-66 101l-89 -115q-17 -23 -17 -44q0 -26 42 -26v-18h-149v18q29 0 72 58l119 157l-92 147q-37 61 -103 61v18h216v-18q-31 0 -32 -22q-1 -11 19 -44l45 -71l40 56q32 46 32 61q0 20 -40 20v18h160v-18q-27 0 -48 -15 q-26 -18 -66 -72l-59 -79l127 -188q46 -69 95 -69v-18z" />
<glyph unicode="y" horiz-adv-x="514" d="M497 441q-28 0 -41 -18q-11 -14 -30 -61l-185 -452q-22 -54 -61.5 -88t-79.5 -34q-27 0 -46.5 14.5t-20.5 34.5q-2 51 51 51q20 0 35 -9t31 -9q31 0 66 83l29 70l-143 300q-55 118 -102 118v18h211v-18q-49 0 -49 -36q0 -13 35 -88l89 -188l95 234q14 34 14 50 q0 28 -47 28v18h149v-18z" />
<glyph unicode="z" horiz-adv-x="463" d="M440 441l-308 -407h195q40 0 60 15q27 19 33 97h18l-10 -146h-408v24l302 401h-165q-40 0 -57 -17q-23 -23 -24 -76h-18v127h382v-18z" />
<glyph unicode="{" horiz-adv-x="262" d="M214 -115q-42 -1 -66 7.5t-36 24.5t-15.5 37t-3.5 44v182q0 19 -7 35t-15 28q-10 14 -22 25q0 1 7 7.5t15 17.5t15 27t7 36v179q0 23 3.5 45t16 38.5t36.5 26.5t65 10v-33q-29 0 -46 -5.5t-25.5 -17t-11 -27.5t-2.5 -37v-179q0 -22 -6.5 -38.5t-14 -27t-13.5 -16t-6 -6.5 t6 -8t13.5 -18.5t14 -27.5t6.5 -34v-182q0 -21 2.5 -36.5t11.5 -26t25.5 -15.5t44.5 -5q1 0 1.5 -4.5t0.5 -10.5t-0.5 -10.5z" />
<glyph unicode="|" horiz-adv-x="228" d="M140 -158h-58v730h58v-730z" />
<glyph unicode="}" horiz-adv-x="262" d="M220 266q-12 -11 -22 -25q-8 -12 -15 -28t-7 -35v-182q0 -23 -3.5 -44t-15.5 -37t-36 -24.5t-66 -7.5l-0.5 4.5t-0.5 10.5t0.5 10.5t1.5 4.5q28 0 44.5 5t25.5 15.5t11.5 26t2.5 36.5v182q0 18 6 34t13.5 27.5t14 18.5t6.5 8t-6.5 6.5t-14 16t-13.5 27t-6 38.5v179 q0 21 -2.5 37t-11 27.5t-25.5 17t-46 5.5q-1 9 -1 16v11.5t1 5.5q41 0 65 -10t36.5 -26.5t16 -38.5t3.5 -45v-179q0 -20 7 -36t15 -27t15 -17.5t7 -7.5z" />
<glyph unicode="~" horiz-adv-x="398" d="M360 380q0 -36 -34 -55q-26 -16 -65 -16q-46 0 -94 20l-32 16q-20 9 -32 9q-41 0 -44 -36h-21q0 14 7 27q27 51 94 51q34 0 87 -22q54 -21 75 -21q35 0 37 27h22z" />
<glyph unicode="&#xa2;" horiz-adv-x="500" d="M445 175q-45 -185 -188 -185q-42 0 -82 21l-76 -205h-40l83 226q-83 68 -83 186q0 104 64 177q65 74 154 74h14.5t11.5 -1l79 212h40l-81 -219q97 -25 97 -101q0 -21 -17 -36t-38 -15q-22 0 -35.5 15.5t-13.5 35.5q0 34 -11 51l-115 -311q36 -36 82 -36q93 0 141 119z M290 432q-11 3 -26 3q-27 0 -49.5 -12t-38.5 -33.5t-24.5 -50.5t-8.5 -62q0 -81 37 -142z" />
<glyph unicode="&#xa3;" horiz-adv-x="530" d="M501 152q-7 -68 -44 -115q-42 -53 -110 -53q-90 0 -167 83q-35 -83 -96 -83q-26 0 -45 19.5t-19 47.5q0 35 25 58t64 23q8 0 22 -2.5t20 -2.5q2 19 3.5 38.5t1.5 41.5q0 31 -3 65.5t-8 72.5h-103v34h98q-6 60 -6 91q0 95 48 157q54 69 150 69q60 0 98 -35q32 -32 32 -66 q0 -16 -12 -29.5t-28 -13.5q-41 0 -42 61q-1 52 -63 52q-95 0 -95 -142q0 -25 3 -60.5t8 -83.5h136l1 -34h-134l-1 -48q-1 -48 -9.5 -92.5t-24.5 -87.5q85 -41 169 -41q91 0 114 80zM147 86q-23 14 -46 14q-49 0 -49 -43q0 -42 33 -42q44 0 62 71z" />
<glyph unicode="&#xa5;" horiz-adv-x="607" d="M607 662q-89 0 -128 -85l-25 -55h98v-38h-115l-46 -100h161v-38h-178l-23 -51v-187q0 -53 20.5 -71.5t74.5 -18.5v-18h-303v18q28 0 47 4t29.5 14t15 27.5t4.5 44.5v175l-27 63h-168v38h151l-43 100h-108v38h92l-28 65q-32 75 -108 75v18h296v-18q-77 0 -77 -39 q0 -16 14 -55l18 -46h154l24 56q9 21 9 38q0 46 -70 46v18h239v-18zM388 484h-122l58 -147z" />
<glyph unicode="&#xa8;" horiz-adv-x="285" d="M107 800q0 -19 -14 -32.5t-34 -13.5t-34 13.5t-14 32.5t14 32.5t34 13.5t34 -13.5t14 -32.5zM283 800q0 -19 -14 -32.5t-34 -13.5t-34 13.5t-14 32.5t14 32.5t34 13.5t34 -13.5t14 -32.5z" />
<glyph unicode="&#xa9;" horiz-adv-x="760" d="M737 341q0 -148 -105 -253q-104 -104 -252 -104q-147 0 -253 104q-104 106 -104 253t104 251q106 104 253 104q148 0 252 -104q105 -104 105 -251zM706 341q0 134 -96 229q-95 95 -230 95q-134 0 -231 -95q-95 -95 -95 -229q0 -135 96 -231q97 -95 230 -95q136 0 230 94 q96 94 96 232zM576 216q-70 -103 -196 -103q-95 0 -163 64q-68 65 -68 158q0 107 67 171q68 65 175 65q35 0 91 -19q17 -5 18 -5q18 0 26 24h18l10 -142h-18q-14 55 -54 86.5t-97 31.5q-152 0 -152 -194q0 -206 168 -206q105 0 155 80z" />
<glyph unicode="&#xab;" horiz-adv-x="528" d="M478 0h-31l-199 230l199 229h31l-128 -229zM280 0h-31l-199 230l199 229h31l-128 -229z" />
<glyph unicode="&#xae;" horiz-adv-x="760" d="M737 341q0 -148 -105 -253q-104 -104 -252 -104q-147 0 -253 104q-104 106 -104 253t104 251q106 104 253 104q148 0 252 -104q105 -104 105 -251zM706 341q0 134 -96 229q-95 95 -230 95q-134 0 -231 -95q-95 -95 -95 -229q0 -135 96 -231q97 -95 230 -95q136 0 230 94 q96 94 96 232zM612 127h-101l-155 203h-40v-117q0 -68 63 -68v-18h-193v18q55 0 55 68v274q0 34 -9 46.5t-40 12.5v18h190q73 0 119 -26q51 -29 51 -86q0 -86 -117 -113l102 -139q24 -34 35 -43q13 -12 40 -12v-18zM466 445q0 42 -30 69.5t-75 27.5q-24 0 -45 -8v-181h10 q140 0 140 92z" />
<glyph unicode="&#xb4;" horiz-adv-x="201" d="M190 896l-151 -177h-28l53 177h126z" />
<glyph unicode="&#xb8;" horiz-adv-x="346" d="M262 -91q0 -59 -81 -59q-34 0 -83 13l-1 31q54 -12 83 -12q35 0 35 25q0 32 -59 26v61h25v-31q81 0 81 -54z" />
<glyph unicode="&#xbb;" horiz-adv-x="528" d="M478 230l-199 -230h-31l128 230l-128 229h31zM280 230l-199 -230h-31l128 230l-128 229h31z" />
<glyph unicode="&#x2c6;" horiz-adv-x="296" d="M296 739h-17l-131 107l-131 -107h-17l100 167h96z" />
<glyph unicode="&#x2da;" horiz-adv-x="196" d="M161 807q0 -26 -18 -44t-44 -18t-44 18t-18 44q0 25 18 43t44 18t44 -18t18 -43zM132 807q0 13 -10 23t-23 10q-33 0 -33 -33t33 -33q13 0 23 9.5t10 23.5z" />
<glyph unicode="&#x2dc;" horiz-adv-x="404" d="M356 830q0 -36 -33 -55q-28 -16 -66 -16q-46 0 -94 20q-8 4 -15.5 8t-15.5 8q-20 9 -33 9q-41 0 -44 -36h-21q0 13 8 27q27 51 93 51q35 0 88 -22q54 -21 74 -21q35 0 37 27h22z" />
<glyph unicode="&#x5b0;" d="M33 -116q0 -14 -9 -23.5t-23 -9.5t-23.5 9.5t-9.5 23.5t9.5 23.5t23.5 9.5t23 -9.5t9 -23.5zM34 -211q0 -14 -9 -23.5t-23 -9.5t-23.5 9.5t-9.5 23.5t9.5 23.5t23.5 9.5t23 -9.5t9 -23.5z" />
<glyph unicode="&#x5b1;" d="M-79 -116q0 -14 -9 -23.5t-23 -9.5t-23.5 9.5t-9.5 23.5t9.5 23.5t23.5 9.5t23 -9.5t9 -23.5zM33 -115q0 -14 -9 -23.5t-23 -9.5t-23.5 9.5t-9.5 23.5t9.5 23.5t23.5 9.5t23 -9.5t9 -23.5zM146 -213q0 -14 -9 -23.5t-23 -9.5t-23.5 9.5t-9.5 23.5t9.5 23.5t23.5 9.5 t23 -9.5t9 -23.5zM144 -116q0 -14 -9 -23.5t-23 -9.5t-23.5 9.5t-9.5 23.5t9.5 23.5t23.5 9.5t23 -9.5t9 -23.5zM-22 -207q0 -14 -9 -23.5t-23 -9.5t-23.5 9.5t-9.5 23.5t9.5 23.5t23.5 9.5t23 -9.5t9 -23.5z" />
<glyph unicode="&#x5b2;" d="M-146 -146v53h202v-53h-202zM146 -116q0 -14 -9 -23.5t-23 -9.5t-23.5 9.5t-9.5 23.5t9.5 23.5t23.5 9.5t23 -9.5t9 -23.5zM148 -211q0 -14 -9 -23.5t-23 -9.5t-23.5 9.5t-9.5 23.5t9.5 23.5t23.5 9.5t23 -9.5t9 -23.5z" />
<glyph unicode="&#x5b3;" d="M-24 -146l8 -97v-46h-54v46l6 97h-81v53h202v-53h-81zM145 -117q0 -14 -9 -23.5t-23 -9.5t-23.5 9.5t-9.5 23.5t9.5 23.5t23.5 9.5t23 -9.5t9 -23.5zM147 -212q0 -14 -9 -23.5t-23 -9.5t-23.5 9.5t-9.5 23.5t9.5 23.5t23.5 9.5t23 -9.5t9 -23.5z" />
<glyph unicode="&#x5b4;" d="M33 -120q0 -14 -9 -23.5t-23 -9.5t-23.5 9.5t-9.5 23.5t9.5 23.5t23.5 9.5t23 -9.5t9 -23.5z" />
<glyph unicode="&#x5b5;" d="M91 -117q0 -14 -9 -23.5t-23 -9.5t-23.5 9.5t-9.5 23.5t9.5 23.5t23.5 9.5t23 -9.5t9 -23.5zM-24 -117q0 -14 -9 -23.5t-23 -9.5t-23.5 9.5t-9.5 23.5t9.5 23.5t23.5 9.5t23 -9.5t9 -23.5z" />
<glyph unicode="&#x5b6;" d="M36 -210q0 -14 -9 -23.5t-23 -9.5t-23.5 9.5t-9.5 23.5t9.5 23.5t23.5 9.5t23 -9.5t9 -23.5zM91 -117q0 -14 -9 -23.5t-23 -9.5t-23.5 9.5t-9.5 23.5t9.5 23.5t23.5 9.5t23 -9.5t9 -23.5zM-24 -117q0 -14 -9 -23.5t-23 -9.5t-23.5 9.5t-9.5 23.5t9.5 23.5t23.5 9.5 t23 -9.5t9 -23.5z" />
<glyph unicode="&#x5b7;" d="M-101 -146v53h202v-53h-202z" />
<glyph unicode="&#x5b8;" d="M20 -146l8 -97v-46h-54v46l6 97h-81v53h202v-53h-81z" />
<glyph unicode="&#x5b9;" d="M33 634q0 -14 -9 -23.5t-23 -9.5t-23.5 9.5t-9.5 23.5t9.5 23.5t23.5 9.5t23 -9.5t9 -23.5z" />
<glyph unicode="&#x5bb;" d="M-31 -118q0 -14 -9 -23.5t-23 -9.5t-23.5 9.5t-9.5 23.5t9.5 23.5t23.5 9.5t23 -9.5t9 -23.5zM33 -191q0 -14 -9 -23.5t-23 -9.5t-23.5 9.5t-9.5 23.5t9.5 23.5t23.5 9.5t23 -9.5t9 -23.5zM97 -263q0 -14 -9 -23.5t-23 -9.5t-23.5 9.5t-9.5 23.5t9.5 23.5t23.5 9.5 t23 -9.5t9 -23.5z" />
<glyph unicode="&#x5bc;" d="M33 267q0 -14 -9 -23.5t-23 -9.5t-23.5 9.5t-9.5 23.5t9.5 23.5t23.5 9.5t23 -9.5t9 -23.5z" />
<glyph unicode="&#x5bd;" d="M-14 -229v127h28v-127h-28z" />
<glyph unicode="&#x5be;" horiz-adv-x="598" d="M90 525h418v-87h-418v87z" />
<glyph unicode="&#x5bf;" d="M-101 634v53h202v-53h-202z" />
<glyph unicode="&#x5c0;" horiz-adv-x="168" d="M60 -130v747h48v-747h-48z" />
<glyph unicode="&#x5c1;" d="M33 637q0 -14 -9 -23.5t-23 -9.5t-23.5 9.5t-9.5 23.5t9.5 23.5t23.5 9.5t23 -9.5t9 -23.5z" />
<glyph unicode="&#x5c2;" d="M33 643q0 -14 -9 -23.5t-23 -9.5t-23.5 9.5t-9.5 23.5t9.5 23.5t23.5 9.5t23 -9.5t9 -23.5z" />
<glyph unicode="&#x5c3;" horiz-adv-x="275" d="M85 333v110h113v-110h-113zM85 0v110h113v-110h-113z" />
<glyph unicode="&#x5c5;" d="M-50 -347q0 21 14.5 35.5t35.5 14.5t35.5 -14.5t14.5 -35.5t-14.5 -35.5t-35.5 -14.5t-35.5 14.5t-14.5 35.5z" />
<glyph unicode="&#x5c7;" d="M78 -121h-63l5 -49q1 -8 1.5 -11t0.5 -1v-85h-44v85q0 -3 2 12t5 49h-63v43h156v-43z" />
<glyph unicode="&#x5d0;" horiz-adv-x="594" d="M435 0q-14 23 -26 42t-24 37t-25 37t-28 42q-12 17 -25.5 36t-26 36.5t-22.5 30.5t-14 18l-12 14l-5.5 -6t-13 -16t-15 -21.5t-12.5 -22.5q-6 -13 -9.5 -28t-5.5 -28.5t-2.5 -24t-0.5 -15.5v-131h-105v74q0 41 6 86t29 89q11 21 25.5 40t28.5 34q16 17 33 32l-10 14 l-10.5 14t-17.5 22t-21 25t-21 24q-9 10 -20 22t-20.5 22t-16.5 17.5t-8 9.5h135q23 -28 41 -49t41 -49q17 -22 38 -48.5t39 -49.5q21 -27 41 -54q0 -1 5.5 5t13 14.5t14.5 19t10 18.5q5 11 9.5 29.5t4.5 48.5v115h105v-87q0 -32 -5.5 -60t-13.5 -50q-10 -26 -26 -47.5 t-32 -36.5q-18 -18 -39 -32l30 -46q13 -20 27.5 -43t26.5 -42q14 -23 24.5 -40.5t24.5 -40.5h-119z" />
<glyph unicode="&#x5d1;" horiz-adv-x="530" d="M48 0v87h286v213q0 31 -4 60t-16 44q-20 23 -45 28.5t-56 5.5h-163v87h163q30 0 58 -2.5t52.5 -10t45.5 -23t36 -40.5q22 -35 28 -69.5t6 -79.5v-213h59v-87h-450z" />
<glyph unicode="&#x5d2;" horiz-adv-x="394" d="M241 0q-2 8 -6 28t-6 40q-3 26 -5 46t-2 47q-17 -27 -30 -46t-35 -42q-14 -15 -26 -27.5t-24 -23.5t-25.5 -22t-29.5 -23v120q16 15 33 30q14 13 30 28t29 29q9 9 21 21.5t23.5 27t19.5 30.5t8 33v88q0 8 -4 20t-16 22q-9 8 -22.5 10t-18.5 2h-85v87h85q36 0 64 -4.5 t56 -27.5q27 -23 36.5 -56t9.5 -53v-171q0 -38 2 -68t6 -64q1 -14 4 -27.5t5 -25t4 -19.5t2 -9h-103z" />
<glyph unicode="&#x5d3;" horiz-adv-x="488" d="M387 438v-438h-105v438h-257v87h431v-87h-69z" />
<glyph unicode="&#x5d4;" horiz-adv-x="603" d="M436 0v300q0 30 -2.5 55.5t-18.5 44.5q-20 23 -44.5 30.5t-55.5 7.5h-224v87h224q30 0 57.5 -2.5t51.5 -10.5t45 -23t38 -40q23 -34 28.5 -69t5.5 -80v-300h-105zM91 0v291l105 51v-342h-105z" />
<glyph unicode="&#x5d5;" horiz-adv-x="261" d="M78 0v525h105v-525h-105z" />
<glyph unicode="&#x5d6;" horiz-adv-x="324" d="M286 438q-23 0 -40 -10.5t-27 -24.5t-15 -27t-7 -26.5t-2 -28v-30.5v-291h-105v262q0 25 3 48.5t20 59.5q5 11 13 23t15.5 22t12.5 16.5l5 6.5h-127v87h266v-87h-12z" />
<glyph unicode="&#x5d7;" horiz-adv-x="627" d="M447 0v300q0 30 -2.5 55.5t-18.5 44.5q-20 23 -44.5 30.5t-55.5 7.5h-143v-438h-105v525h248q30 0 57.5 -2.5t51.5 -10.5t45 -23t38 -40q23 -34 28.5 -69t5.5 -80v-300h-105z" />
<glyph unicode="&#x5d8;" horiz-adv-x="639" d="M588 261q-2 -36 -14 -84.5t-41 -91.5t-77.5 -73t-124.5 -30q-65 0 -113 17t-80 47.5t-47.5 73t-15.5 92.5v313h105v-313q0 -37 12 -64.5t32.5 -46t48 -27.5t58.5 -9q38 0 66 17t47 45t28 63t10 71q1 32 -1 65.5t-12 61t-32 45.5t-61 18q-33 0 -60.5 -16t-41.5 -34v99 q29 20 59.5 28.5t56.5 8.5q51 0 89.5 -19t64 -55t37 -87t7.5 -115z" />
<glyph unicode="&#x5d9;" horiz-adv-x="255" d="M75 190v335h105v-281z" />
<glyph unicode="&#x5da;" horiz-adv-x="484" d="M337 -170v470q0 31 -4.5 56.5t-20.5 44.5q-20 23 -43 30t-53 7h-163v87h163q60 0 108 -15t82 -64q23 -34 29.5 -67.5t6.5 -78.5v-470h-105z" />
<glyph unicode="&#x5db;" horiz-adv-x="532" d="M488 262q-1 -58 -18 -106t-49 -82.5t-78.5 -54t-106.5 -19.5h-180v87h170q37 0 65 14.5t47 39t29 56t10 65.5q0 38 -11 70.5t-31 56t-47.5 36.5t-61.5 13h-170v87h170q39 0 85 -11.5t85.5 -41t66 -80.5t25.5 -130z" />
<glyph unicode="&#x5dc;" horiz-adv-x="490" d="M275 0h-117l192 438h-307v257h105v-170h319v-87z" />
<glyph unicode="&#x5dd;" horiz-adv-x="636" d="M78 0v525h257q30 0 57 -2.5t51 -10.5t45 -23t39 -40q23 -33 28.5 -68.5t5.5 -80.5v-300h-483zM456 300q0 29 -5 53.5t-21 43.5q-20 23 -42.5 32t-52.5 9h-152v-351h273v213z" />
<glyph unicode="&#x5de;" horiz-adv-x="693" d="M643 266q1 -54 -11.5 -105t-41.5 -90.5t-76 -63.5t-114 -25q-23 0 -40.5 2.5t-39.5 8.5v86q21 -8 39 -9.5t41 -1.5q40 1 66.5 18.5t42.5 45.5t22 63t6 70q0 33 -7.5 67t-23 61.5t-40 45t-57.5 17.5q-30 0 -54.5 -15.5t-43.5 -40.5t-33.5 -57t-24.5 -65q-7 -21 -13 -48 t-11 -51.5t-8 -42t-3 -20.5l-20 -116h-115l40 187q2 9 5 21.5t6 27t4.5 28.5t1.5 25q0 21 -11.5 58t-30.5 90q-4 12 -9 26t-10 26.5t-9 22t-5 13.5h115q7 -18 11.5 -30t11.5 -32t11 -35.5t9 -36.5q23 68 72 108t121 40q54 0 95.5 -19.5t70.5 -55.5t44.5 -86.5t16.5 -111.5z " />
<glyph unicode="&#x5df;" horiz-adv-x="261" d="M78 -170v695h105v-695h-105z" />
<glyph unicode="&#x5e0;" horiz-adv-x="388" d="M63 0v87h158v297q0 8 -3.5 20t-15.5 22q-9 8 -23 10t-19 2h-85v87h85q32 0 62 -5.5t58 -28.5q27 -23 36.5 -55t9.5 -52v-384h-263z" />
<glyph unicode="&#x5e1;" horiz-adv-x="632" d="M582 255q0 -36 -11.5 -83.5t-41 -89.5t-78.5 -71t-124 -29q-65 0 -112.5 17t-79 47.5t-46.5 72.5t-15 93v313h267q51 0 95 -15t76.5 -47.5t51 -83.5t18.5 -124zM477 261q-1 33 -8.5 65t-23.5 56.5t-42.5 40t-65.5 15.5h-158v-226q0 -39 11.5 -67t32 -46t47.5 -26t57 -8 q39 0 68 17t47.5 45t27 63t7.5 71z" />
<glyph unicode="&#x5e2;" horiz-adv-x="592" d="M531 273q0 -38 -12 -81.5t-42 -83.5q-14 -18 -32 -33t-36 -26.5t-34.5 -20t-26.5 -12.5l-278 -124v99l127 57l-129 477h111l118 -434q20 6 38 17q16 9 33.5 23.5t31.5 37.5q17 26 21.5 52t4.5 52v252h105v-252v0z" />
<glyph unicode="&#x5e3;" horiz-adv-x="581" d="M422 -170v452q0 35 -8 66t-26 50q-20 22 -50 31t-65 9h-98v-107q0 -37 31 -53q11 -6 23.5 -5.5t20.5 2.5v-75q-11 -4 -26.5 -5.5t-33.5 0.5t-36.5 8t-34.5 17q-49 33 -49 94v211h231q60 0 107 -16.5t82 -65.5q23 -33 30 -66.5t7 -76.5v-470h-105z" />
<glyph unicode="&#x5e4;" horiz-adv-x="618" d="M568 262q-1 -58 -20 -106t-52 -82.5t-78 -54t-99 -19.5h-241v87h231q37 0 64.5 15t46 39.5t28 56t9.5 64.5q0 38 -9.5 70.5t-29.5 56t-50 36.5t-72 13h-113v-85q0 -19 7 -35t24 -24q11 -5 24.5 -5t21.5 2v-75q-11 -4 -27 -5.5t-35 0t-37.5 7t-33.5 16.5q-30 21 -39.5 50 t-9.5 66v175h227q54 0 102.5 -17t84.5 -50t56.5 -82.5t19.5 -113.5z" />
<glyph unicode="&#x5e5;" horiz-adv-x="558" d="M510 424q0 -38 -10 -67.5t-24 -55.5q-6 -11 -18 -26t-29 -30.5t-38 -29.5t-44 -22v-363h-105v349q0 21 -2.5 37.5t-10.5 34.5q-8 20 -16.5 31.5t-19.5 28.5l-147 214h128l99 -147q1 -2 4.5 -7t8 -12.5t10 -16t9.5 -15.5q6 -11 11.5 -23t13.5 -32q9 6 23.5 19t25.5 32 q6 10 16 32t10 64v106h105v-101v0z" />
<glyph unicode="&#x5e6;" horiz-adv-x="594" d="M529 424q0 -38 -8.5 -66t-25.5 -57q-13 -21 -37 -45.5t-56 -40.5l100 -139v-76h-423v87h288l-320 438h132l180 -250q8 5 23.5 22t26.5 38q7 14 11 31t4 37v122h105v-101v0z" />
<glyph unicode="&#x5e7;" horiz-adv-x="632" d="M413 0h-116l180 438h-405v87h519v-87zM101 -170v461l105 51v-512h-105z" />
<glyph unicode="&#x5e8;" horiz-adv-x="500" d="M347 0v300q0 29 -4.5 53.5t-20.5 43.5q-20 23 -42.5 32t-53.5 9h-175v87h175q30 0 57.5 -2.5t51.5 -10.5t45 -23t38 -40q23 -34 28.5 -69t5.5 -80v-300h-105z" />
<glyph unicode="&#x5e9;" horiz-adv-x="736" d="M662 278q0 -62 -23 -116.5t-63 -95t-93.5 -64t-114.5 -23.5q-78 0 -133.5 20.5t-91.5 59t-52.5 94t-16.5 125.5v247h105v-286q21 -2 43 3.5t45 17.5q21 11 31.5 27.5t14.5 33.5t4 33v27v144h105v-144q0 -46 -10.5 -75.5t-31.5 -54.5q-23 -27 -55 -42t-62 -22 q-35 -9 -72 -10q6 -32 27 -57q17 -22 52 -39.5t96 -17.5q35 0 69 14.5t61 41.5t44 66t17 88v252h105v-247v0z" />
<glyph unicode="&#x5ea;" horiz-adv-x="703" d="M524 0v300q0 29 -4.5 53.5t-20.5 43.5q-20 23 -42.5 32t-53.5 9h-122v-319q0 -22 -4.5 -38t-12.5 -28.5t-19.5 -23t-26.5 -20.5q-18 -12 -40 -16.5t-44 -4.5t-40.5 4t-28.5 9v85q11 -8 31.5 -11t38.5 2q23 7 32 21.5t9 37.5v302h-95v87h322q30 0 57.5 -2.5t51.5 -10.5 t45 -23t38 -40q23 -34 28.5 -69t5.5 -80v-300h-105z" />
<glyph unicode="&#x5f0;" horiz-adv-x="473" d="M78 0v525h105v-525h-105zM290 0v525h105v-525h-105z" />
<glyph unicode="&#x5f1;" horiz-adv-x="483" d="M300 0v525h105v-525h-105zM78 190v335h105v-281z" />
<glyph unicode="&#x5f2;" horiz-adv-x="485" d="M78 190v335h105v-281zM305 190v335h105v-281z" />
<glyph unicode="&#x5f3;" horiz-adv-x="283" d="M151 501q0 -30 -97 -220h-14q36 103 36 160q0 26 -32 65l70 71q35 -44 37 -76z" />
<glyph unicode="&#x5f4;" horiz-adv-x="425" d="M338 500q0 -32 -97 -220h-14q18 53 27.5 93t9.5 67q0 21 -32 65l69 71q37 -44 37 -76zM166 499q0 -30 -98 -220h-13q36 106 36 160q0 22 -31 65l69 71q37 -46 37 -76z" />
<glyph unicode="&#x2013;" horiz-adv-x="598" d="M90 229v73h418v-73h-418z" />
<glyph unicode="&#x2014;" horiz-adv-x="678" d="M90 229v73h498v-73h-498z" />
<glyph unicode="&#x2018;" horiz-adv-x="283" d="M144 363l-105 202h97l66 -202h-58z" />
<glyph unicode="&#x2019;" horiz-adv-x="283" d="M124 363h-58l66 202h97z" />
<glyph unicode="&#x201a;" horiz-adv-x="283" d="M138 41q0 -30 -97 -220h-14q36 103 36 160q0 26 -32 65l70 71q35 -44 37 -76z" />
<glyph unicode="&#x201c;" horiz-adv-x="359" d="M144 363l-105 202h97l66 -202h-58zM295 363l-105 202h97l66 -202h-58z" />
<glyph unicode="&#x201d;" horiz-adv-x="342" d="M124 363h-58l66 202h97zM277 363h-58l66 202h97z" />
<glyph unicode="&#x201e;" horiz-adv-x="380" d="M338 120q0 -32 -97 -220h-14q18 53 27.5 93t9.5 67q0 21 -32 65l69 71q37 -44 37 -76zM166 119q0 -30 -98 -220h-13q36 106 36 160q0 22 -31 65l69 71q37 -46 37 -76z" />
<glyph unicode="&#x2022;" horiz-adv-x="449" d="M430 297q0 -84 -60 -145q-60 -60 -144 -60q-85 0 -146 60q-60 60 -60 145t60 144q62 59 146 59t144 -60q60 -59 60 -143z" />
<glyph unicode="&#x2026;" horiz-adv-x="565" d="M547 52q-18 -16 -34.5 -34t-32.5 -35q-17 17 -33.5 34.5t-33.5 34.5q18 17 35 34l34 34q31 -35 65 -68zM357 52q-18 -16 -34.5 -34t-32.5 -35q-17 17 -33.5 34.5t-33.5 34.5q18 17 35 34l34 34q31 -35 65 -68zM167 52q-18 -16 -34.5 -34t-32.5 -35q-17 17 -33.5 34.5 t-33.5 34.5q18 17 35 34l34 34q31 -35 65 -68z" />
<glyph unicode="&#x2039;" horiz-adv-x="330" d="M280 0h-31l-199 230l199 229h31l-128 -229z" />
<glyph unicode="&#x203a;" horiz-adv-x="330" d="M280 230l-199 -230h-31l128 230l-128 229h31z" />
<glyph unicode="&#x20ac;" horiz-adv-x="615" d="M589 52q-38 -32 -85 -50t-101 -18q-49 0 -93 15.5t-80 43t-62.5 65.5t-40.5 83h-98l34 60h54q-1 8 -1 12v8v10t1 13h-88l34 60h65q14 45 41 82.5t63 64.5t79.5 42t91.5 15q54 0 101 -18t85 -50l-31 -53q-31 29 -70.5 45t-84.5 16q-70 0 -126 -39t-85 -105h320l-36 -60 h-299q-1 -8 -1 -13v-10v-8t1 -12h275l-35 -60h-227q28 -67 84.5 -107t128.5 -40q45 0 84.5 16t70.5 45q7 -12 9.5 -17l4.5 -9t5.5 -8.5t11.5 -18.5z" />
<glyph unicode="&#x2122;" horiz-adv-x="1034" d="M1006 275h-203v18q37 0 50 22q10 16 10 56v234h-2l-153 -330h-17l-153 325h-2v-229q0 -41 12 -58q14 -20 48 -20v-18h-151v18q35 0 48 20q12 17 12 58v214q0 41 -12.5 59t-47.5 18v18h146l138 -288l133 288h144v-18q-38 0 -51 -22q-9 -15 -9 -55v-214q0 -41 12 -58 q13 -20 48 -20v-18zM410 578h-16q-10 44 -40 59q-22 11 -74 11h-22v-277q0 -40 9 -56q13 -22 52 -22v-18h-201v18q37 0 49 23q8 16 8 55v277h-18q-54 0 -75 -10q-31 -15 -39 -60h-19l12 102h365z" />
<glyph unicode="&#xe000;" horiz-adv-x="460" d="M0 460h460v-460h-460v460z" />
<glyph unicode="&#xfb01;" horiz-adv-x="538" d="M518 0h-484v18q44 0 59 21q13 17 13 68v318h-88v34h88v69q0 36 12.5 67t36 53.5t58 35t79.5 12.5q69 0 110 -19q47 -23 47 -62t-41 -39q-36 0 -49 22l-18 42q-15 22 -53 22q-43 0 -71 -25t-28 -61v-117h257v-352q0 -51 14 -70t58 -19v-18zM363 353q0 45 -4 56 q-4 16 -26 16h-144v-318q0 -51 14 -70t58 -19h30q44 0 59 21q13 17 13 68v246z" />
<glyph unicode="&#xfb02;" horiz-adv-x="587" d="M563 0h-227v18q44 0 59 21q13 17 13 68v443v31.5t-1 17.5q-9 -23 -39 -23q-31 0 -53 43t-57 43q-13 0 -25.5 -7t-22 -19t-15.5 -27.5t-6 -32.5v-117h112v-34h-112v-318q0 -51 14 -70t58 -19v-18h-227v18q44 0 59 21q13 17 13 68v318h-88v34h88v69q0 69 45 119 q46 49 111 49q90 0 127 -35l78 35h24v-589q0 -51 14 -70t58 -19v-18z" />
<glyph unicode="&#xfb1f;" horiz-adv-x="448" d="M123 -53v53h202v-53h-202zM78 190v335h105v-281zM265 190v335h105v-281z" />
<glyph unicode="&#xfb29;" horiz-adv-x="460" d="M428 209h-396v108h144v142h108v-142h144v-108z" />
<glyph unicode="&#xfb2a;" horiz-adv-x="736" d="M662 278q0 -62 -23 -116.5t-63 -95t-93.5 -64t-114.5 -23.5q-78 0 -133.5 20.5t-91.5 59t-52.5 94t-16.5 125.5v247h105v-286q21 -2 43 3.5t45 17.5q21 11 31.5 27.5t14.5 33.5t4 33v27v144h105v-144q0 -46 -10.5 -75.5t-31.5 -54.5q-23 -27 -55 -42t-62 -22 q-35 -9 -72 -10q6 -32 27 -57q17 -22 52 -39.5t96 -17.5q35 0 69 14.5t61 41.5t44 66t17 88v252h105v-247v0zM590 601q0 -14 -9 -23.5t-23 -9.5t-23.5 9.5t-9.5 23.5t9.5 23.5t23.5 9.5t23 -9.5t9 -23.5z" />
<glyph unicode="&#xfb2b;" horiz-adv-x="736" d="M662 278q0 -62 -23 -116.5t-63 -95t-93.5 -64t-114.5 -23.5q-78 0 -133.5 20.5t-91.5 59t-52.5 94t-16.5 125.5v247h105v-286q21 -2 43 3.5t45 17.5q21 11 31.5 27.5t14.5 33.5t4 33v27v144h105v-144q0 -46 -10.5 -75.5t-31.5 -54.5q-23 -27 -55 -42t-62 -22 q-35 -9 -72 -10q6 -32 27 -57q17 -22 52 -39.5t96 -17.5q35 0 69 14.5t61 41.5t44 66t17 88v252h105v-247v0zM212 601q0 -14 -9 -23.5t-23 -9.5t-23.5 9.5t-9.5 23.5t9.5 23.5t23.5 9.5t23 -9.5t9 -23.5z" />
<glyph unicode="&#xfb2c;" horiz-adv-x="736" d="M662 278q0 -62 -23 -116.5t-63 -95t-93.5 -64t-114.5 -23.5q-78 0 -133.5 20.5t-91.5 59t-52.5 94t-16.5 125.5v247h105v-286q21 -2 43 3.5t45 17.5q21 11 31.5 27.5t14.5 33.5t4 33v27v144h105v-144q0 -46 -10.5 -75.5t-31.5 -54.5q-23 -27 -55 -42t-62 -22 q-35 -9 -72 -10q6 -32 27 -57q17 -22 52 -39.5t96 -17.5q35 0 69 14.5t61 41.5t44 66t17 88v252h105v-247v0zM590 601q0 -14 -9 -23.5t-23 -9.5t-23.5 9.5t-9.5 23.5t9.5 23.5t23.5 9.5t23 -9.5t9 -23.5zM521 343q0 -14 -9 -23.5t-23 -9.5t-23.5 9.5t-9.5 23.5t9.5 23.5 t23.5 9.5t23 -9.5t9 -23.5z" />
<glyph unicode="&#xfb2d;" horiz-adv-x="736" d="M662 278q0 -62 -23 -116.5t-63 -95t-93.5 -64t-114.5 -23.5q-78 0 -133.5 20.5t-91.5 59t-52.5 94t-16.5 125.5v247h105v-286q21 -2 43 3.5t45 17.5q21 11 31.5 27.5t14.5 33.5t4 33v27v144h105v-144q0 -46 -10.5 -75.5t-31.5 -54.5q-23 -27 -55 -42t-62 -22 q-35 -9 -72 -10q6 -32 27 -57q17 -22 52 -39.5t96 -17.5q35 0 69 14.5t61 41.5t44 66t17 88v252h105v-247v0zM521 343q0 -14 -9 -23.5t-23 -9.5t-23.5 9.5t-9.5 23.5t9.5 23.5t23.5 9.5t23 -9.5t9 -23.5zM212 601q0 -14 -9 -23.5t-23 -9.5t-23.5 9.5t-9.5 23.5t9.5 23.5 t23.5 9.5t23 -9.5t9 -23.5z" />
<glyph unicode="&#xfb2e;" horiz-adv-x="594" d="M435 0q-14 23 -26 42t-24 37t-25 37t-28 42q-12 17 -25.5 36t-26 36.5t-22.5 30.5t-14 18l-12 14l-5.5 -6t-13 -16t-15 -21.5t-12.5 -22.5q-6 -13 -9.5 -28t-5.5 -28.5t-2.5 -24t-0.5 -15.5v-131h-105v74q0 41 6 86t29 89q11 21 25.5 40t28.5 34q16 17 33 32l-10 14 l-10.5 14t-17.5 22t-21 25t-21 24q-9 10 -20 22t-20.5 22t-16.5 17.5t-8 9.5h135q23 -28 41 -49t41 -49q17 -22 38 -48.5t39 -49.5q21 -27 41 -54q0 -1 5.5 5t13 14.5t14.5 19t10 18.5q5 11 9.5 29.5t4.5 48.5v115h105v-87q0 -32 -5.5 -60t-13.5 -50q-10 -26 -26 -47.5 t-32 -36.5q-18 -18 -39 -32l30 -46q13 -20 27.5 -43t26.5 -42q14 -23 24.5 -40.5t24.5 -40.5h-119zM198 -146v53h202v-53h-202z" />
<glyph unicode="&#xfb2f;" horiz-adv-x="594" d="M435 0q-14 23 -26 42t-24 37t-25 37t-28 42q-12 17 -25.5 36t-26 36.5t-22.5 30.5t-14 18l-12 14l-5.5 -6t-13 -16t-15 -21.5t-12.5 -22.5q-6 -13 -9.5 -28t-5.5 -28.5t-2.5 -24t-0.5 -15.5v-131h-105v74q0 41 6 86t29 89q11 21 25.5 40t28.5 34q16 17 33 32l-10 14 l-10.5 14t-17.5 22t-21 25t-21 24q-9 10 -20 22t-20.5 22t-16.5 17.5t-8 9.5h135q23 -28 41 -49t41 -49q17 -22 38 -48.5t39 -49.5q21 -27 41 -54q0 -1 5.5 5t13 14.5t14.5 19t10 18.5q5 11 9.5 29.5t4.5 48.5v115h105v-87q0 -32 -5.5 -60t-13.5 -50q-10 -26 -26 -47.5 t-32 -36.5q-18 -18 -39 -32l30 -46q13 -20 27.5 -43t26.5 -42q14 -23 24.5 -40.5t24.5 -40.5h-119zM317 -146l8 -97v-46h-54v46l6 97h-81v53h202v-53h-81z" />
<glyph unicode="&#xfb30;" horiz-adv-x="594" d="M435 0q-14 23 -26 42t-24 37t-25 37t-28 42q-12 17 -25.5 36t-26 36.5t-22.5 30.5t-14 18l-12 14l-5.5 -6t-13 -16t-15 -21.5t-12.5 -22.5q-6 -13 -9.5 -28t-5.5 -28.5t-2.5 -24t-0.5 -15.5v-131h-105v74q0 41 6 86t29 89q11 21 25.5 40t28.5 34q16 17 33 32l-10 14 l-10.5 14t-17.5 22t-21 25t-21 24q-9 10 -20 22t-20.5 22t-16.5 17.5t-8 9.5h135q23 -28 41 -49t41 -49q17 -22 38 -48.5t39 -49.5q21 -27 41 -54q0 -1 5.5 5t13 14.5t14.5 19t10 18.5q5 11 9.5 29.5t4.5 48.5v115h105v-87q0 -32 -5.5 -60t-13.5 -50q-10 -26 -26 -47.5 t-32 -36.5q-18 -18 -39 -32l30 -46q13 -20 27.5 -43t26.5 -42q14 -23 24.5 -40.5t24.5 -40.5h-119zM322 -120q0 -14 -9 -23.5t-23 -9.5t-23.5 9.5t-9.5 23.5t9.5 23.5t23.5 9.5t23 -9.5t9 -23.5z" />
<glyph unicode="&#xfb31;" horiz-adv-x="530" d="M48 0v87h286v213q0 31 -4 60t-16 44q-20 23 -45 28.5t-56 5.5h-163v87h163q30 0 58 -2.5t52.5 -10t45.5 -23t36 -40.5q22 -35 28 -69.5t6 -79.5v-213h59v-87h-450zM230 265q0 -14 -9 -23.5t-23 -9.5t-23.5 9.5t-9.5 23.5t9.5 23.5t23.5 9.5t23 -9.5t9 -23.5z" />
<glyph unicode="&#xfb32;" horiz-adv-x="394" d="M241 0q-2 8 -6 28t-6 40q-3 26 -5 46t-2 47q-17 -27 -30 -46t-35 -42q-14 -15 -26 -27.5t-24 -23.5t-25.5 -22t-29.5 -23v120q16 15 33 30q14 13 30 28t29 29q9 9 21 21.5t23.5 27t19.5 30.5t8 33v88q0 8 -4 20t-16 22q-9 8 -22.5 10t-18.5 2h-85v87h85q36 0 64 -4.5 t56 -27.5q27 -23 36.5 -56t9.5 -53v-171q0 -38 2 -68t6 -64q1 -14 4 -27.5t5 -25t4 -19.5t2 -9h-103zM168 316q0 -14 -9 -23.5t-23 -9.5t-23.5 9.5t-9.5 23.5t9.5 23.5t23.5 9.5t23 -9.5t9 -23.5z" />
<glyph unicode="&#xfb33;" horiz-adv-x="488" d="M387 438v-438h-105v438h-257v87h431v-87h-69zM199 266q0 -14 -9 -23.5t-23 -9.5t-23.5 9.5t-9.5 23.5t9.5 23.5t23.5 9.5t23 -9.5t9 -23.5z" />
<glyph unicode="&#xfb34;" horiz-adv-x="603" d="M436 0v300q0 30 -2.5 55.5t-18.5 44.5q-20 23 -44.5 30.5t-55.5 7.5h-224v87h224q30 0 57.5 -2.5t51.5 -10.5t45 -23t38 -40q23 -34 28.5 -69t5.5 -80v-300h-105zM91 0v291l105 51v-342h-105zM350 237q0 -14 -9 -23.5t-23 -9.5t-23.5 9.5t-9.5 23.5t9.5 23.5t23.5 9.5 t23 -9.5t9 -23.5z" />
<glyph unicode="&#xfb35;" horiz-adv-x="261" d="M78 0v525h105v-525h-105zM48 257q0 -14 -9 -23.5t-23 -9.5t-23.5 9.5t-9.5 23.5t9.5 23.5t23.5 9.5t23 -9.5t9 -23.5z" />
<glyph unicode="&#xfb36;" horiz-adv-x="324" d="M286 438q-23 0 -40 -10.5t-27 -24.5t-15 -27t-7 -26.5t-2 -28v-30.5v-291h-105v262q0 25 3 48.5t20 59.5q5 11 13 23t15.5 22t12.5 16.5l5 6.5h-127v87h266v-87h-12zM44 217q0 -14 -9 -23.5t-23 -9.5t-23.5 9.5t-9.5 23.5t9.5 23.5t23.5 9.5t23 -9.5t9 -23.5z" />
<glyph unicode="&#xfb38;" horiz-adv-x="639" d="M588 261q-2 -36 -14 -84.5t-41 -91.5t-77.5 -73t-124.5 -30q-65 0 -113 17t-80 47.5t-47.5 73t-15.5 92.5v313h105v-313q0 -37 12 -64.5t32.5 -46t48 -27.5t58.5 -9q38 0 66 17t47 45t28 63t10 71q1 32 -1 65.5t-12 61t-32 45.5t-61 18q-33 0 -60.5 -16t-41.5 -34v99 q29 20 59.5 28.5t56.5 8.5q51 0 89.5 -19t64 -55t37 -87t7.5 -115zM361 266q0 -14 -9 -23.5t-23 -9.5t-23.5 9.5t-9.5 23.5t9.5 23.5t23.5 9.5t23 -9.5t9 -23.5z" />
<glyph unicode="&#xfb39;" horiz-adv-x="255" d="M75 190v335h105v-281zM34 358q0 -14 -9 -23.5t-23 -9.5t-23.5 9.5t-9.5 23.5t9.5 23.5t23.5 9.5t23 -9.5t9 -23.5z" />
<glyph unicode="&#xfb3a;" horiz-adv-x="484" d="M337 -170v470q0 31 -4.5 56.5t-20.5 44.5q-20 23 -43 30t-53 7h-163v87h163q60 0 108 -15t82 -64q23 -34 29.5 -67.5t6.5 -78.5v-470h-105zM225 273q0 -14 -9 -23.5t-23 -9.5t-23.5 9.5t-9.5 23.5t9.5 23.5t23.5 9.5t23 -9.5t9 -23.5z" />
<glyph unicode="&#xfb3b;" horiz-adv-x="532" d="M488 262q-1 -58 -18 -106t-49 -82.5t-78.5 -54t-106.5 -19.5h-180v87h170q37 0 65 14.5t47 39t29 56t10 65.5q0 38 -11 70.5t-31 56t-47.5 36.5t-61.5 13h-170v87h170q39 0 85 -11.5t85.5 -41t66 -80.5t25.5 -130zM251 276q0 -14 -9 -23.5t-23 -9.5t-23.5 9.5t-9.5 23.5 t9.5 23.5t23.5 9.5t23 -9.5t9 -23.5z" />
<glyph unicode="&#xfb3c;" horiz-adv-x="490" d="M275 0h-117l192 438h-307v257h105v-170h319v-87zM205 321q0 -14 -9 -23.5t-23 -9.5t-23.5 9.5t-9.5 23.5t9.5 23.5t23.5 9.5t23 -9.5t9 -23.5z" />
<glyph unicode="&#xfb3e;" horiz-adv-x="693" d="M643 266q1 -54 -11.5 -105t-41.5 -90.5t-76 -63.5t-114 -25q-23 0 -40.5 2.5t-39.5 8.5v86q21 -8 39 -9.5t41 -1.5q40 1 66.5 18.5t42.5 45.5t22 63t6 70q0 33 -7.5 67t-23 61.5t-40 45t-57.5 17.5q-30 0 -54.5 -15.5t-43.5 -40.5t-33.5 -57t-24.5 -65q-7 -21 -13 -48 t-11 -51.5t-8 -42t-3 -20.5l-20 -116h-115l40 187q2 9 5 21.5t6 27t4.5 28.5t1.5 25q0 21 -11.5 58t-30.5 90q-4 12 -9 26t-10 26.5t-9 22t-5 13.5h115q7 -18 11.5 -30t11.5 -32t11 -35.5t9 -36.5q23 68 72 108t121 40q54 0 95.5 -19.5t70.5 -55.5t44.5 -86.5t16.5 -111.5z M429 267q0 -14 -9 -23.5t-23 -9.5t-23.5 9.5t-9.5 23.5t9.5 23.5t23.5 9.5t23 -9.5t9 -23.5z" />
<glyph unicode="&#xfb40;" horiz-adv-x="388" d="M63 0v87h158v297q0 8 -3.5 20t-15.5 22q-9 8 -23 10t-19 2h-85v87h85q32 0 62 -5.5t58 -28.5q27 -23 36.5 -55t9.5 -52v-384h-263zM170 266q0 -14 -9 -23.5t-23 -9.5t-23.5 9.5t-9.5 23.5t9.5 23.5t23.5 9.5t23 -9.5t9 -23.5z" />
<glyph unicode="&#xfb41;" horiz-adv-x="632" d="M582 255q0 -36 -11.5 -83.5t-41 -89.5t-78.5 -71t-124 -29q-65 0 -112.5 17t-79 47.5t-46.5 72.5t-15 93v313h267q51 0 95 -15t76.5 -47.5t51 -83.5t18.5 -124zM477 261q-1 33 -8.5 65t-23.5 56.5t-42.5 40t-65.5 15.5h-158v-226q0 -39 11.5 -67t32 -46t47.5 -26t57 -8 q39 0 68 17t47.5 45t27 63t7.5 71zM362 267q0 -14 -9 -23.5t-23 -9.5t-23.5 9.5t-9.5 23.5t9.5 23.5t23.5 9.5t23 -9.5t9 -23.5z" />
<glyph unicode="&#xfb43;" horiz-adv-x="581" d="M422 -170v452q0 35 -8 66t-26 50q-20 22 -50 31t-65 9h-98v-107q0 -37 31 -53q11 -6 23.5 -5.5t20.5 2.5v-75q-11 -4 -26.5 -5.5t-33.5 0.5t-36.5 8t-34.5 17q-49 33 -49 94v211h231q60 0 107 -16.5t82 -65.5q23 -33 30 -66.5t7 -76.5v-470h-105zM320 346q0 -14 -9 -23.5 t-23 -9.5t-23.5 9.5t-9.5 23.5t9.5 23.5t23.5 9.5t23 -9.5t9 -23.5z" />
<glyph unicode="&#xfb44;" horiz-adv-x="618" d="M568 262q-1 -58 -20 -106t-52 -82.5t-78 -54t-99 -19.5h-241v87h231q37 0 64.5 15t46 39.5t28 56t9.5 64.5q0 38 -9.5 70.5t-29.5 56t-50 36.5t-72 13h-113v-85q0 -19 7 -35t24 -24q11 -5 24.5 -5t21.5 2v-75q-11 -4 -27 -5.5t-35 0t-37.5 7t-33.5 16.5q-30 21 -39.5 50 t-9.5 66v175h227q54 0 102.5 -17t84.5 -50t56.5 -82.5t19.5 -113.5zM372 342q0 -14 -9 -23.5t-23 -9.5t-23.5 9.5t-9.5 23.5t9.5 23.5t23.5 9.5t23 -9.5t9 -23.5z" />
<glyph unicode="&#xfb46;" horiz-adv-x="594" d="M529 424q0 -38 -8.5 -66t-25.5 -57q-13 -21 -37 -45.5t-56 -40.5l100 -139v-76h-423v87h288l-320 438h132l180 -250q8 5 23.5 22t26.5 38q7 14 11 31t4 37v122h105v-101v0zM239 167q0 -14 -9 -23.5t-23 -9.5t-23.5 9.5t-9.5 23.5t9.5 23.5t23.5 9.5t23 -9.5t9 -23.5z" />
<glyph unicode="&#xfb47;" horiz-adv-x="632" d="M413 0h-116l180 438h-405v87h519v-87zM101 -170v461l105 51v-512h-105zM331 282q0 -14 -9 -23.5t-23 -9.5t-23.5 9.5t-9.5 23.5t9.5 23.5t23.5 9.5t23 -9.5t9 -23.5z" />
<glyph unicode="&#xfb48;" horiz-adv-x="500" d="M347 0v300q0 29 -4.5 53.5t-20.5 43.5q-20 23 -42.5 32t-53.5 9h-175v87h175q30 0 57.5 -2.5t51.5 -10.5t45 -23t38 -40q23 -34 28.5 -69t5.5 -80v-300h-105zM229 265q0 -14 -9 -23.5t-23 -9.5t-23.5 9.5t-9.5 23.5t9.5 23.5t23.5 9.5t23 -9.5t9 -23.5z" />
<glyph unicode="&#xfb49;" horiz-adv-x="736" d="M662 278q0 -62 -23 -116.5t-63 -95t-93.5 -64t-114.5 -23.5q-78 0 -133.5 20.5t-91.5 59t-52.5 94t-16.5 125.5v247h105v-286q21 -2 43 3.5t45 17.5q21 11 31.5 27.5t14.5 33.5t4 33v27v144h105v-144q0 -46 -10.5 -75.5t-31.5 -54.5q-23 -27 -55 -42t-62 -22 q-35 -9 -72 -10q6 -32 27 -57q17 -22 52 -39.5t96 -17.5q35 0 69 14.5t61 41.5t44 66t17 88v252h105v-247v0zM522 342q0 -14 -9 -23.5t-23 -9.5t-23.5 9.5t-9.5 23.5t9.5 23.5t23.5 9.5t23 -9.5t9 -23.5z" />
<glyph unicode="&#xfb4a;" horiz-adv-x="703" d="M524 0v300q0 29 -4.5 53.5t-20.5 43.5q-20 23 -42.5 32t-53.5 9h-122v-319q0 -22 -4.5 -38t-12.5 -28.5t-19.5 -23t-26.5 -20.5q-18 -12 -40 -16.5t-44 -4.5t-40.5 4t-28.5 9v85q11 -8 31.5 -11t38.5 2q23 7 32 21.5t9 37.5v302h-95v87h322q30 0 57.5 -2.5t51.5 -10.5 t45 -23t38 -40q23 -34 28.5 -69t5.5 -80v-300h-105zM437 250q0 -14 -9 -23.5t-23 -9.5t-23.5 9.5t-9.5 23.5t9.5 23.5t23.5 9.5t23 -9.5t9 -23.5z" />
<glyph unicode="&#xfb4b;" horiz-adv-x="261" d="M78 0v525h105v-525h-105zM165 600q0 -14 -9 -23.5t-23 -9.5t-23.5 9.5t-9.5 23.5t9.5 23.5t23.5 9.5t23 -9.5t9 -23.5z" />
<glyph unicode="&#xfb4c;" horiz-adv-x="530" d="M48 0v87h286v213q0 31 -4 60t-16 44q-20 23 -45 28.5t-56 5.5h-163v87h163q30 0 58 -2.5t52.5 -10t45.5 -23t36 -40.5q22 -35 28 -69.5t6 -79.5v-213h59v-87h-450zM112 634v53h202v-53h-202z" />
<glyph unicode="&#xfb4d;" horiz-adv-x="532" d="M488 262q-1 -58 -18 -106t-49 -82.5t-78.5 -54t-106.5 -19.5h-180v87h170q37 0 65 14.5t47 39t29 56t10 65.5q0 38 -11 70.5t-31 56t-47.5 36.5t-61.5 13h-170v87h170q39 0 85 -11.5t85.5 -41t66 -80.5t25.5 -130zM104 635v53h202v-53h-202z" />
<glyph unicode="&#xfb4e;" horiz-adv-x="618" d="M568 262q-1 -58 -20 -106t-52 -82.5t-78 -54t-99 -19.5h-241v87h231q37 0 64.5 15t46 39.5t28 56t9.5 64.5q0 38 -9.5 70.5t-29.5 56t-50 36.5t-72 13h-113v-85q0 -19 7 -35t24 -24q11 -5 24.5 -5t21.5 2v-75q-11 -4 -27 -5.5t-35 0t-37.5 7t-33.5 16.5q-30 21 -39.5 50 t-9.5 66v175h227q54 0 102.5 -17t84.5 -50t56.5 -82.5t19.5 -113.5zM163 634v53h202v-53h-202z" />
<glyph d="M-50 689q0 21 14.5 35.5t35.5 14.5t35.5 -14.5t14.5 -35.5t-14.5 -35.5t-35.5 -14.5t-35.5 14.5t-14.5 35.5z" />
</font>
</defs>
</svg>
